<svg width="36" height="36" viewBox="0 0 36 36" fill="none" xmlns="http://www.w3.org/2000/svg">
<mask id="mask0_63_1630" style="mask-type:alpha" maskUnits="userSpaceOnUse" x="0" y="0" width="36" height="36">
<rect width="36" height="36" fill="#D9D9D9"/>
</mask>
<g mask="url(#mask0_63_1630)">
<path d="M7.65 24.075C7.1 23.125 6.6875 22.15 6.4125 21.15C6.1375 20.15 6 19.125 6 18.075C6 14.725 7.1625 11.875 9.4875 9.525C11.8125 7.175 14.65 6 18 6H18.2625L15.8625 3.6L17.9625 1.5L23.9625 7.5L17.9625 13.5L15.8625 11.4L18.2625 9H18C15.5 9 13.375 9.88125 11.625 11.6438C9.875 13.4063 9 15.55 9 18.075C9 18.725 9.075 19.3625 9.225 19.9875C9.375 20.6125 9.6 21.225 9.9 21.825L7.65 24.075ZM18.0375 34.5L12.0375 28.5L18.0375 22.5L20.1375 24.6L17.7375 27H18C20.5 27 22.625 26.1187 24.375 24.3563C26.125 22.5938 27 20.45 27 17.925C27 17.275 26.925 16.6375 26.775 16.0125C26.625 15.3875 26.4 14.775 26.1 14.175L28.35 11.925C28.9 12.875 29.3125 13.85 29.5875 14.85C29.8625 15.85 30 16.875 30 17.925C30 21.275 28.8375 24.125 26.5125 26.475C24.1875 28.825 21.35 30 18 30H17.7375L20.1375 32.4L18.0375 34.5Z" fill="#25D366"/>
</g>
</svg>
