<svg width="362" height="102" viewBox="0 0 362 102" fill="none" xmlns="http://www.w3.org/2000/svg">
<mask id="mask0_226_3502" style="mask-type:alpha" maskUnits="userSpaceOnUse" x="0" y="0" width="362" height="102">
<path fill-rule="evenodd" clip-rule="evenodd" d="M256.651 101C256.651 100.35 270.867 100 297.27 100H337.89L337.578 95.75L337.267 91.5L307.048 91.235C287.535 91.064 277.049 90.621 277.448 89.985C277.806 89.415 284.015 89 292.202 89H306.339V84V79H311.409H316.479V68.5V58H327.126H337.774V53V48H342.844H347.914V35.059C347.914 27.51 348.337 21.861 348.928 21.5C349.595 21.093 349.942 30.823 349.942 49.941V79H354.505H359.069V40C359.069 14.667 359.424 1 360.083 1C360.742 1 361.097 15 361.097 41V81H355.519H349.942V84.948V88.895L355.266 89.198L360.59 89.5L360.892 95.75L361.193 102H354.554H347.914V96.5V91H343.858H339.802V96.5V102H298.226C271.185 102 256.651 101.65 256.651 101ZM0.303193 94.799L0.606394 88.5L5.93009 88.198L11.2538 87.895V83.948V80H5.67658H0.0993752V40C0.0993752 14 0.454288 0 1.11341 0C1.77254 0 2.12745 13.667 2.12745 39V78H6.69062H11.2538V48.941C11.2538 29.823 11.6006 20.093 12.2678 20.5C12.859 20.861 13.2819 26.51 13.2819 34.059V47H18.352H23.4222V52V57H34.0696H44.717V67.5V78H49.7872H54.8574V83V88H68.9941C77.3244 88 83.3883 88.411 83.7575 89C84.1702 89.658 73.9659 90 53.9032 90H23.4222V94.5V99H63.9837C90.3487 99 104.545 99.35 104.545 100C104.545 100.65 90.011 101 62.9697 101H21.3942V95.5V90H17.3907H13.3883L13.0811 95.25L12.7748 100.5L6.38742 100.799L0 101.098L0.303193 94.799ZM358.873 95.75C358.563 91.51 358.552 91.5 354.505 91.5C350.458 91.5 350.448 91.51 350.138 95.75L349.826 100H354.505H359.185L358.873 95.75ZM11.0581 94.75C10.7478 90.51 10.7376 90.5 6.69062 90.5C2.6436 90.5 2.63346 90.51 2.32316 94.75L2.01084 99H6.69062H11.3704L11.0581 94.75ZM316.479 85V81H312.423H308.367V85V89H312.423H316.479V85ZM326.619 79V69H337.267H347.914V64.5V60H333.211H318.507V74.5V89H322.563H326.619V79ZM337.774 85V81H333.211H328.647V85V89H333.211H337.774V85ZM347.914 85V81H343.858H339.802V85V89H343.858H347.914V85ZM21.3942 84V80H17.338H13.2819V84V88H17.338H21.3942V84ZM32.5486 84V80H27.9854H23.4222V84V88H27.9854H32.5486V84ZM42.6889 73.5V59H27.9854H13.2819V63.5V68H23.9293H34.5766V78V88H38.6328H42.6889V73.5ZM52.8293 84V80H48.7732H44.717V84V88H48.7732H52.8293V84ZM337.578 74.75C337.268 70.51 337.258 70.5 333.211 70.5C329.164 70.5 329.153 70.51 328.843 74.75L328.531 79H333.211H337.89L337.578 74.75ZM347.914 74.44V69.879L344.112 70.19C340.42 70.491 340.3 70.625 339.998 74.75L339.685 79H343.8H347.914V74.44ZM21.1984 73.75C20.8963 69.625 20.7756 69.491 17.0845 69.19L13.2819 68.879V73.44V78H17.3958H21.5108L21.1984 73.75ZM32.3529 73.75C32.0426 69.51 32.0324 69.5 27.9854 69.5C23.9384 69.5 23.9282 69.51 23.6179 73.75L23.3056 78H27.9854H32.6652L32.3529 73.75ZM347.914 54V50H343.858H339.802V54V58H343.858H347.914V54ZM21.3942 53V49H17.338H13.2819V53V57H17.338H21.3942V53Z" fill="#CFA602"/>
</mask>
<g mask="url(#mask0_226_3502)">
<rect x="0.5" y="-0.5" width="125.755" height="166" transform="matrix(1 -1.72425e-07 -1.773e-07 -1 252.594 140)" fill="#CFA602" stroke="#FFAD00"/>
<rect x="108.101" y="139.5" width="125.755" height="166" transform="rotate(180 108.101 139.5)" fill="#CFA602" stroke="#FFAD00"/>
</g>
</svg>
