<svg width="362" height="295" viewBox="0 0 362 295" fill="none" xmlns="http://www.w3.org/2000/svg">
<mask id="mask0_221_3103" style="mask-type:alpha" maskUnits="userSpaceOnUse" x="0" y="0" width="362" height="102">
<mask id="path-1-inside-1_221_3103" fill="white">
<path fill-rule="evenodd" clip-rule="evenodd" d="M256.651 1C256.651 1.65 270.867 2 297.27 2H337.89L337.578 6.25L337.267 10.5L307.048 10.765C287.535 10.936 277.049 11.379 277.448 12.015C277.806 12.585 284.015 13 292.202 13H306.339V18V23H311.409H316.479V33.5V44H327.126H337.774V49V54H342.844H347.914V66.941C347.914 74.49 348.337 80.139 348.928 80.5C349.595 80.907 349.942 71.177 349.942 52.059V23H354.505H359.069V62C359.069 87.333 359.424 101 360.083 101C360.742 101 361.097 87 361.097 61V21H355.519H349.942V17.052V13.105L355.266 12.802L360.59 12.5L360.892 6.25L361.193 0H354.554H347.914V5.5V11H343.858H339.802V5.5V0H298.226C271.185 0 256.651 0.35 256.651 1ZM0.303193 7.201L0.606394 13.5L5.93009 13.802L11.2538 14.105V18.052V22H5.67658H0.0993752V62C0.0993752 88 0.454288 102 1.11341 102C1.77254 102 2.12745 88.333 2.12745 63V24H6.69062H11.2538V53.059C11.2538 72.177 11.6006 81.907 12.2678 81.5C12.859 81.139 13.2819 75.49 13.2819 67.941V55H18.352H23.4222V50V45H34.0696H44.717V34.5V24H49.7872H54.8574V19V14H68.9941C77.3244 14 83.3884 13.589 83.7575 13C84.1702 12.342 73.9659 12 53.9032 12H23.4222V7.5V3H63.9837C90.3487 3 104.545 2.65 104.545 2C104.545 1.35 90.011 1 62.9697 1H21.3942V6.5V12H17.3907H13.3883L13.0811 6.75L12.7748 1.5L6.38742 1.201L0 0.902L0.303193 7.201ZM358.873 6.25C358.563 10.49 358.552 10.5 354.505 10.5C350.458 10.5 350.448 10.49 350.138 6.25L349.826 2H354.505H359.185L358.873 6.25ZM11.0581 7.25C10.7478 11.49 10.7376 11.5 6.69062 11.5C2.64359 11.5 2.63346 11.49 2.32316 7.25L2.01084 3H6.69062H11.3704L11.0581 7.25ZM316.479 17V21H312.423H308.367V17V13H312.423H316.479V17ZM326.619 23V33H337.267H347.914V37.5V42H333.211H318.507V27.5V13H322.563H326.619V23ZM337.774 17V21H333.211H328.647V17V13H333.211H337.774V17ZM347.914 17V21H343.858H339.802V17V13H343.858H347.914V17ZM21.3942 18V22H17.338H13.2819V18V14H17.338H21.3942V18ZM32.5486 18V22H27.9854H23.4222V18V14H27.9854H32.5486V18ZM42.6889 28.5V43H27.9854H13.2819V38.5V34H23.9293H34.5766V24V14H38.6328H42.6889V28.5ZM52.8293 18V22H48.7732H44.717V18V14H48.7732H52.8293V18ZM337.578 27.25C337.268 31.49 337.258 31.5 333.211 31.5C329.164 31.5 329.153 31.49 328.843 27.25L328.531 23H333.211H337.89L337.578 27.25ZM347.914 27.56V32.121L344.112 31.81C340.42 31.509 340.3 31.375 339.998 27.25L339.685 23H343.8H347.914V27.56ZM21.1985 28.25C20.8963 32.375 20.7756 32.509 17.0845 32.81L13.2819 33.121V28.56V24H17.3958H21.5108L21.1985 28.25ZM32.3529 28.25C32.0426 32.49 32.0324 32.5 27.9854 32.5C23.9384 32.5 23.9282 32.49 23.6179 28.25L23.3056 24H27.9854H32.6652L32.3529 28.25ZM347.914 48V52H343.858H339.802V48V44H343.858H347.914V48ZM21.3942 49V53H17.338H13.2819V49V45H17.338H21.3942V49Z"/>
</mask>
<path fill-rule="evenodd" clip-rule="evenodd" d="M256.651 1C256.651 1.65 270.867 2 297.27 2H337.89L337.578 6.25L337.267 10.5L307.048 10.765C287.535 10.936 277.049 11.379 277.448 12.015C277.806 12.585 284.015 13 292.202 13H306.339V18V23H311.409H316.479V33.5V44H327.126H337.774V49V54H342.844H347.914V66.941C347.914 74.49 348.337 80.139 348.928 80.5C349.595 80.907 349.942 71.177 349.942 52.059V23H354.505H359.069V62C359.069 87.333 359.424 101 360.083 101C360.742 101 361.097 87 361.097 61V21H355.519H349.942V17.052V13.105L355.266 12.802L360.59 12.5L360.892 6.25L361.193 0H354.554H347.914V5.5V11H343.858H339.802V5.5V0H298.226C271.185 0 256.651 0.35 256.651 1ZM0.303193 7.201L0.606394 13.5L5.93009 13.802L11.2538 14.105V18.052V22H5.67658H0.0993752V62C0.0993752 88 0.454288 102 1.11341 102C1.77254 102 2.12745 88.333 2.12745 63V24H6.69062H11.2538V53.059C11.2538 72.177 11.6006 81.907 12.2678 81.5C12.859 81.139 13.2819 75.49 13.2819 67.941V55H18.352H23.4222V50V45H34.0696H44.717V34.5V24H49.7872H54.8574V19V14H68.9941C77.3244 14 83.3884 13.589 83.7575 13C84.1702 12.342 73.9659 12 53.9032 12H23.4222V7.5V3H63.9837C90.3487 3 104.545 2.65 104.545 2C104.545 1.35 90.011 1 62.9697 1H21.3942V6.5V12H17.3907H13.3883L13.0811 6.75L12.7748 1.5L6.38742 1.201L0 0.902L0.303193 7.201ZM358.873 6.25C358.563 10.49 358.552 10.5 354.505 10.5C350.458 10.5 350.448 10.49 350.138 6.25L349.826 2H354.505H359.185L358.873 6.25ZM11.0581 7.25C10.7478 11.49 10.7376 11.5 6.69062 11.5C2.64359 11.5 2.63346 11.49 2.32316 7.25L2.01084 3H6.69062H11.3704L11.0581 7.25ZM316.479 17V21H312.423H308.367V17V13H312.423H316.479V17ZM326.619 23V33H337.267H347.914V37.5V42H333.211H318.507V27.5V13H322.563H326.619V23ZM337.774 17V21H333.211H328.647V17V13H333.211H337.774V17ZM347.914 17V21H343.858H339.802V17V13H343.858H347.914V17ZM21.3942 18V22H17.338H13.2819V18V14H17.338H21.3942V18ZM32.5486 18V22H27.9854H23.4222V18V14H27.9854H32.5486V18ZM42.6889 28.5V43H27.9854H13.2819V38.5V34H23.9293H34.5766V24V14H38.6328H42.6889V28.5ZM52.8293 18V22H48.7732H44.717V18V14H48.7732H52.8293V18ZM337.578 27.25C337.268 31.49 337.258 31.5 333.211 31.5C329.164 31.5 329.153 31.49 328.843 27.25L328.531 23H333.211H337.89L337.578 27.25ZM347.914 27.56V32.121L344.112 31.81C340.42 31.509 340.3 31.375 339.998 27.25L339.685 23H343.8H347.914V27.56ZM21.1985 28.25C20.8963 32.375 20.7756 32.509 17.0845 32.81L13.2819 33.121V28.56V24H17.3958H21.5108L21.1985 28.25ZM32.3529 28.25C32.0426 32.49 32.0324 32.5 27.9854 32.5C23.9384 32.5 23.9282 32.49 23.6179 28.25L23.3056 24H27.9854H32.6652L32.3529 28.25ZM347.914 48V52H343.858H339.802V48V44H343.858H347.914V48ZM21.3942 49V53H17.338H13.2819V49V45H17.338H21.3942V49Z" fill="#CFA602" stroke="#FFAD00" stroke-width="2" mask="url(#path-1-inside-1_221_3103)"/>
</mask>
<g mask="url(#mask0_221_3103)">
<rect x="-64.2994" y="-9.5" width="531.37" height="125" fill="#CFA602" stroke="#FFAD00"/>
<rect x="253.094" y="-38.5" width="125.755" height="166" fill="#CFA602" stroke="#FFAD00"/>
<rect x="-0.5" y="0.5" width="125.755" height="166" transform="matrix(-1 0 0 1 107.601 -38)" fill="#CFA602" stroke="#FFAD00"/>
</g>
<mask id="mask1_221_3103" style="mask-type:alpha" maskUnits="userSpaceOnUse" x="0" y="193" width="362" height="102">
<mask id="path-5-inside-2_221_3103" fill="white">
<path fill-rule="evenodd" clip-rule="evenodd" d="M256.651 294C256.651 293.35 270.867 293 297.27 293H337.89L337.578 288.75L337.267 284.5L307.048 284.235C287.535 284.064 277.049 283.621 277.448 282.985C277.806 282.415 284.015 282 292.202 282H306.339V277V272H311.409H316.479V261.5V251H327.126H337.774V246V241H342.844H347.914V228.059C347.914 220.51 348.337 214.861 348.928 214.5C349.595 214.093 349.942 223.823 349.942 242.941V272H354.505H359.069V233C359.069 207.667 359.424 194 360.083 194C360.742 194 361.097 208 361.097 234V274H355.519H349.942V277.948V281.895L355.266 282.198L360.59 282.5L360.892 288.75L361.193 295H354.554H347.914V289.5V284H343.858H339.802V289.5V295H298.226C271.185 295 256.651 294.65 256.651 294ZM0.303193 287.799L0.606394 281.5L5.93009 281.198L11.2538 280.895V276.948V273H5.67658H0.0993752V233C0.0993752 207 0.454288 193 1.11341 193C1.77254 193 2.12745 206.667 2.12745 232V271H6.69062H11.2538V241.941C11.2538 222.823 11.6006 213.093 12.2678 213.5C12.859 213.861 13.2819 219.51 13.2819 227.059V240H18.352H23.4222V245V250H34.0696H44.717V260.5V271H49.7872H54.8574V276V281H68.9941C77.3244 281 83.3884 281.411 83.7575 282C84.1702 282.658 73.9659 283 53.9032 283H23.4222V287.5V292H63.9837C90.3487 292 104.545 292.35 104.545 293C104.545 293.65 90.011 294 62.9697 294H21.3942V288.5V283H17.3907H13.3883L13.0811 288.25L12.7748 293.5L6.38742 293.799L0 294.098L0.303193 287.799ZM358.873 288.75C358.563 284.51 358.552 284.5 354.505 284.5C350.458 284.5 350.448 284.51 350.138 288.75L349.826 293H354.505H359.185L358.873 288.75ZM11.0581 287.75C10.7478 283.51 10.7376 283.5 6.69062 283.5C2.64359 283.5 2.63346 283.51 2.32316 287.75L2.01084 292H6.69062H11.3704L11.0581 287.75ZM316.479 278V274H312.423H308.367V278V282H312.423H316.479V278ZM326.619 272V262H337.267H347.914V257.5V253H333.211H318.507V267.5V282H322.563H326.619V272ZM337.774 278V274H333.211H328.647V278V282H333.211H337.774V278ZM347.914 278V274H343.858H339.802V278V282H343.858H347.914V278ZM21.3942 277V273H17.338H13.2819V277V281H17.338H21.3942V277ZM32.5486 277V273H27.9854H23.4222V277V281H27.9854H32.5486V277ZM42.6889 266.5V252H27.9854H13.2819V256.5V261H23.9293H34.5766V271V281H38.6328H42.6889V266.5ZM52.8293 277V273H48.7732H44.717V277V281H48.7732H52.8293V277ZM337.578 267.75C337.268 263.51 337.258 263.5 333.211 263.5C329.164 263.5 329.153 263.51 328.843 267.75L328.531 272H333.211H337.89L337.578 267.75ZM347.914 267.44V262.879L344.112 263.19C340.42 263.491 340.3 263.625 339.998 267.75L339.685 272H343.8H347.914V267.44ZM21.1985 266.75C20.8963 262.625 20.7756 262.491 17.0845 262.19L13.2819 261.879V266.44V271H17.3958H21.5108L21.1985 266.75ZM32.3529 266.75C32.0426 262.51 32.0324 262.5 27.9854 262.5C23.9384 262.5 23.9282 262.51 23.6179 266.75L23.3056 271H27.9854H32.6652L32.3529 266.75ZM347.914 247V243H343.858H339.802V247V251H343.858H347.914V247ZM21.3942 246V242H17.338H13.2819V246V250H17.338H21.3942V246Z"/>
</mask>
<path fill-rule="evenodd" clip-rule="evenodd" d="M256.651 294C256.651 293.35 270.867 293 297.27 293H337.89L337.578 288.75L337.267 284.5L307.048 284.235C287.535 284.064 277.049 283.621 277.448 282.985C277.806 282.415 284.015 282 292.202 282H306.339V277V272H311.409H316.479V261.5V251H327.126H337.774V246V241H342.844H347.914V228.059C347.914 220.51 348.337 214.861 348.928 214.5C349.595 214.093 349.942 223.823 349.942 242.941V272H354.505H359.069V233C359.069 207.667 359.424 194 360.083 194C360.742 194 361.097 208 361.097 234V274H355.519H349.942V277.948V281.895L355.266 282.198L360.59 282.5L360.892 288.75L361.193 295H354.554H347.914V289.5V284H343.858H339.802V289.5V295H298.226C271.185 295 256.651 294.65 256.651 294ZM0.303193 287.799L0.606394 281.5L5.93009 281.198L11.2538 280.895V276.948V273H5.67658H0.0993752V233C0.0993752 207 0.454288 193 1.11341 193C1.77254 193 2.12745 206.667 2.12745 232V271H6.69062H11.2538V241.941C11.2538 222.823 11.6006 213.093 12.2678 213.5C12.859 213.861 13.2819 219.51 13.2819 227.059V240H18.352H23.4222V245V250H34.0696H44.717V260.5V271H49.7872H54.8574V276V281H68.9941C77.3244 281 83.3884 281.411 83.7575 282C84.1702 282.658 73.9659 283 53.9032 283H23.4222V287.5V292H63.9837C90.3487 292 104.545 292.35 104.545 293C104.545 293.65 90.011 294 62.9697 294H21.3942V288.5V283H17.3907H13.3883L13.0811 288.25L12.7748 293.5L6.38742 293.799L0 294.098L0.303193 287.799ZM358.873 288.75C358.563 284.51 358.552 284.5 354.505 284.5C350.458 284.5 350.448 284.51 350.138 288.75L349.826 293H354.505H359.185L358.873 288.75ZM11.0581 287.75C10.7478 283.51 10.7376 283.5 6.69062 283.5C2.64359 283.5 2.63346 283.51 2.32316 287.75L2.01084 292H6.69062H11.3704L11.0581 287.75ZM316.479 278V274H312.423H308.367V278V282H312.423H316.479V278ZM326.619 272V262H337.267H347.914V257.5V253H333.211H318.507V267.5V282H322.563H326.619V272ZM337.774 278V274H333.211H328.647V278V282H333.211H337.774V278ZM347.914 278V274H343.858H339.802V278V282H343.858H347.914V278ZM21.3942 277V273H17.338H13.2819V277V281H17.338H21.3942V277ZM32.5486 277V273H27.9854H23.4222V277V281H27.9854H32.5486V277ZM42.6889 266.5V252H27.9854H13.2819V256.5V261H23.9293H34.5766V271V281H38.6328H42.6889V266.5ZM52.8293 277V273H48.7732H44.717V277V281H48.7732H52.8293V277ZM337.578 267.75C337.268 263.51 337.258 263.5 333.211 263.5C329.164 263.5 329.153 263.51 328.843 267.75L328.531 272H333.211H337.89L337.578 267.75ZM347.914 267.44V262.879L344.112 263.19C340.42 263.491 340.3 263.625 339.998 267.75L339.685 272H343.8H347.914V267.44ZM21.1985 266.75C20.8963 262.625 20.7756 262.491 17.0845 262.19L13.2819 261.879V266.44V271H17.3958H21.5108L21.1985 266.75ZM32.3529 266.75C32.0426 262.51 32.0324 262.5 27.9854 262.5C23.9384 262.5 23.9282 262.51 23.6179 266.75L23.3056 271H27.9854H32.6652L32.3529 266.75ZM347.914 247V243H343.858H339.802V247V251H343.858H347.914V247ZM21.3942 246V242H17.338H13.2819V246V250H17.338H21.3942V246Z" fill="#CFA602" stroke="#FFAD00" stroke-width="2" mask="url(#path-5-inside-2_221_3103)"/>
</mask>
<g mask="url(#mask1_221_3103)">
<rect x="0.5" y="-0.5" width="125.755" height="166" transform="matrix(1 -1.72425e-07 -1.773e-07 -1 252.594 333)" fill="#CFA602" stroke="#FFAD00"/>
<rect x="108.101" y="332.5" width="125.755" height="166" transform="rotate(180 108.101 332.5)" fill="#CFA602" stroke="#FFAD00"/>
</g>
</svg>
