<svg width="132" height="101" viewBox="0 0 132 101" fill="none" xmlns="http://www.w3.org/2000/svg">
<path d="M16.1045 0L17.779 3.07457C19.282 5.83425 21.0921 8.41771 23.1718 10.7716L34.0456 23.0785C42.1305 32.229 41.968 45.9354 33.6769 54.1838L30.5682 57.2764C26.2772 61.5453 24.9973 68.1086 27.3108 73.9805L37.4553 99.7286C37.6116 100.125 37.2843 100.523 36.8764 100.433C36.7637 100.408 36.6605 100.347 36.5825 100.258L20.9739 82.5594C12.1108 72.5097 12.7135 57.3712 22.3149 48.8708C30.3693 41.7401 32.2673 29.6764 26.8885 19.8005L16.1045 0Z" fill="white" fill-opacity="0.94"/>
<path d="M55.1045 0L56.779 3.07457C58.282 5.83425 60.0921 8.41771 62.1718 10.7716L73.0456 23.0785C81.1305 32.229 80.968 45.9354 72.6769 54.1838L69.5682 57.2764C65.2772 61.5453 63.9973 68.1086 66.3108 73.9805L76.4553 99.7286C76.6116 100.125 76.2843 100.523 75.8764 100.433C75.7637 100.408 75.6605 100.347 75.5825 100.258L59.9739 82.5594C51.1108 72.5097 51.7135 57.3712 61.3149 48.8708C69.3693 41.7401 71.2673 29.6764 65.8885 19.8005L55.1045 0Z" fill="white" fill-opacity="0.94"/>
<path d="M94.1045 0L95.779 3.07457C97.282 5.83425 99.0921 8.41771 101.172 10.7716L112.046 23.0785C120.13 32.229 119.968 45.9354 111.677 54.1838L108.568 57.2764C104.277 61.5453 102.997 68.1086 105.311 73.9805L115.455 99.7286C115.612 100.125 115.284 100.523 114.876 100.433C114.764 100.408 114.661 100.347 114.582 100.258L98.9739 82.5594C90.1108 72.5097 90.7135 57.3712 100.315 48.8708C108.369 41.7401 110.267 29.6764 104.889 19.8005L94.1045 0Z" fill="white" fill-opacity="0.94"/>
</svg>
