<svg width="162" height="154" viewBox="0 0 162 154" fill="none" xmlns="http://www.w3.org/2000/svg">
<path fill-rule="evenodd" clip-rule="evenodd" d="M82 0C104.856 0 123.901 16.3144 128.126 37.9332C132.461 33.6466 138.422 31 145 31C158.255 31 169 41.7452 169 55C169 64.8371 163.082 73.292 154.611 76.998C154.867 78.6278 155 80.2984 155 82C155 99.6731 140.673 114 123 114C114.921 114 107.541 111.006 101.909 106.067C100.323 132.805 78.1368 154 51 154C22.8335 154 0 131.167 0 103C0 80.21 14.9484 60.9114 35.5751 54.3742C35.1966 51.9717 35 49.5088 35 47C35 21.0426 56.0426 0 82 0Z" fill="white" fill-opacity="0.51"/>
<path fill-rule="evenodd" clip-rule="evenodd" d="M82.5549 5C102.901 5 119.854 20.2066 123.615 40.3575C127.474 36.362 132.78 33.8951 138.636 33.8951C150.435 33.8951 160 43.9106 160 56.2654C160 65.4346 154.732 73.3154 147.192 76.7698C147.419 78.2889 147.538 79.846 147.538 81.4321C147.538 97.9052 134.784 111.259 119.052 111.259C113.348 111.259 108.035 109.504 103.58 106.48C100.591 129.371 81.9949 147 59.5 147C34.9233 147 15 125.957 15 100C15 80.8287 25.8679 64.3383 41.4517 57.0264C40.9692 54.3646 40.7168 51.6175 40.7168 48.8086C40.7168 24.6138 59.4483 5 82.5549 5Z" fill="white" fill-opacity="0.51"/>
</svg>
