<svg width="293" height="158" viewBox="0 0 293 158" fill="none" xmlns="http://www.w3.org/2000/svg">
<ellipse cx="143.355" cy="92.9532" rx="138.958" ry="35.5" transform="rotate(12.5898 143.355 92.9532)" fill="#3F3F3F"/>
<path d="M279.424 121.441L7.91848 61.7038C22.4086 42.5858 32.5576 33.8614 52.8327 20.4486C73.1078 7.03573 242.033 43.8093 254.997 64.9294C267.962 86.0496 272.903 98.5372 279.424 121.441Z" fill="#3F3F3F"/>
<path d="M151.364 61.3189C178.69 67.5062 203.817 71.488 222.359 72.9189C231.622 73.6338 239.286 73.7157 244.772 73.1033C247.509 72.7978 249.766 72.3133 251.426 71.6132C253.049 70.9281 254.346 69.9274 254.682 68.4454C255.017 66.9634 254.278 65.5016 253.108 64.1839C251.912 62.8373 250.083 61.4277 247.745 59.9732C243.058 57.0572 236.107 53.8299 227.439 50.4847C210.088 43.7887 185.697 36.5582 158.371 30.3709C131.045 24.1836 105.918 20.2019 87.3758 18.7709C78.1123 18.0561 70.4488 17.9742 64.9623 18.5866C62.2258 18.892 59.9683 19.3765 58.3091 20.0766C56.6854 20.7617 55.3884 21.7624 55.0529 23.2444C54.7173 24.7264 55.4567 26.1882 56.6269 27.5059C57.8227 28.8525 59.6513 30.2621 61.9894 31.7166C66.6769 34.6327 73.6282 37.86 82.2961 41.2052C99.6463 47.9012 124.038 55.1317 151.364 61.3189Z" fill="#696969" stroke="#7C7C7C" stroke-width="2"/>
<ellipse cx="152.676" cy="38.5686" rx="11.9356" ry="5" transform="rotate(13.0648 152.676 38.5686)" fill="#3F3F3F"/>
<rect x="147.262" y="8.10272" width="23.8195" height="29.2978" transform="rotate(12.5855 147.262 8.10272)" fill="#3F3F3F"/>
<path d="M169.775 13.1443C169.699 13.4726 169.447 13.8403 168.861 14.194C168.271 14.55 167.416 14.8426 166.318 15.0221C164.126 15.3801 161.172 15.2543 157.995 14.5169C154.817 13.7796 152.11 12.5915 150.3 11.305C149.393 10.6602 148.754 10.0208 148.381 9.44146C148.011 8.86576 147.947 8.42488 148.023 8.09663C148.099 7.76838 148.351 7.40071 148.937 7.04697C149.527 6.69098 150.382 6.39833 151.48 6.2189C153.672 5.86088 156.626 5.98671 159.803 6.72403C162.98 7.46135 165.688 8.64947 167.498 9.936C168.405 10.5808 169.044 11.2202 169.417 11.7995C169.787 12.3752 169.851 12.8161 169.775 13.1443Z" fill="#696969" stroke="#7C7C7C" stroke-width="2"/>
<path d="M38.8921 64.458C40.2002 69.188 41.5693 73.8814 43.0152 78.5634" stroke="#7A7A7A" stroke-width="2" stroke-linecap="round"/>
<path d="M46.4873 56.8629C49.0474 66.3532 51.1899 76.1786 54.2995 85.5075" stroke="#7A7A7A" stroke-width="2" stroke-linecap="round"/>
<path d="M32.3818 70.7512C37.7702 70.7512 43.0549 70.0556 48.4161 69.4974C53.0665 69.0132 57.7305 68.486 62.3165 67.5564C62.6757 67.4836 64.2445 67.3533 64.4986 66.8451" stroke="#7A7A7A" stroke-width="2" stroke-linecap="round"/>
<path d="M39.3262 75.7423C46.1254 75.8262 52.9247 75.9593 59.7246 75.9593" stroke="#7A7A7A" stroke-width="2" stroke-linecap="round"/>
</svg>
