<svg width="303" height="144" viewBox="0 0 303 144" fill="none" xmlns="http://www.w3.org/2000/svg">
<ellipse cx="178" cy="111" rx="125" ry="33" fill="#604B32"/>
<path d="M0 36H278C267.957 69.1512 259.919 85.436 243 112C226.081 138.564 53.2 139.149 36 112C18.8 84.8507 11.2909 67.9074 0 36Z" fill="#3F3F3F"/>
<path d="M277 35.5C277 39.8402 273.535 44.2503 266.56 48.4622C259.646 52.6371 249.574 56.4324 237.04 59.6334C211.988 66.0316 177.325 70 139 70C100.675 70 66.0117 66.0316 40.9596 59.6334C28.426 56.4324 18.3544 52.6371 11.4402 48.4622C4.46496 44.2503 1 39.8402 1 35.5C1 31.1598 4.46496 26.7497 11.4402 22.5378C18.3544 18.3629 28.426 14.5676 40.9596 11.3666C66.0117 4.96842 100.675 1 139 1C177.325 1 211.988 4.96842 237.04 11.3666C249.574 14.5676 259.646 18.3629 266.56 22.5378C273.535 26.7497 277 31.1598 277 35.5Z" fill="#696969" stroke="#7C7C7C" stroke-width="2"/>
<ellipse cx="139" cy="41" rx="117" ry="30" fill="url(#paint0_angular_139_2191)"/>
<defs>
<radialGradient id="paint0_angular_139_2191" cx="0" cy="0" r="1" gradientUnits="userSpaceOnUse" gradientTransform="translate(139 41) rotate(180) scale(141.507 24.8045)">
<stop stop-color="#FCBD43"/>
<stop offset="0.18" stop-color="#87C3FF"/>
<stop offset="0.715" stop-color="#DF658A"/>
</radialGradient>
</defs>
</svg>
