<svg width="78" height="79" viewBox="0 0 78 79" fill="none" xmlns="http://www.w3.org/2000/svg">
<mask id="path-1-inside-1_63_1690" fill="white">
<path fill-rule="evenodd" clip-rule="evenodd" d="M39 78.5444C60.5391 78.5444 78 61.0835 78 39.5444C78 32.5192 76.1425 25.9279 72.8918 20.2347C72.0884 20.0871 71.2885 20.0062 70.5 20.0062C66.359 20.0062 63.4342 21.1746 60.5531 22.3255C57.4661 23.5588 54.4292 24.772 50 24.5062C46.7378 24.3105 44.3161 23.2731 41.9113 22.243C39.4013 21.1678 36.9096 20.1005 33.5 20.0062C29.7989 19.9039 27.1629 21.0849 24.5315 22.2638C21.8787 23.4524 19.2304 24.6389 15.5 24.5062C12.0457 24.3833 7.59138 23.1152 4.18163 21.9565C1.50698 27.2409 0 33.2167 0 39.5444C0 61.0835 17.4609 78.5444 39 78.5444Z"/>
</mask>
<path fill-rule="evenodd" clip-rule="evenodd" d="M39 78.5444C60.5391 78.5444 78 61.0835 78 39.5444C78 32.5192 76.1425 25.9279 72.8918 20.2347C72.0884 20.0871 71.2885 20.0062 70.5 20.0062C66.359 20.0062 63.4342 21.1746 60.5531 22.3255C57.4661 23.5588 54.4292 24.772 50 24.5062C46.7378 24.3105 44.3161 23.2731 41.9113 22.243C39.4013 21.1678 36.9096 20.1005 33.5 20.0062C29.7989 19.9039 27.1629 21.0849 24.5315 22.2638C21.8787 23.4524 19.2304 24.6389 15.5 24.5062C12.0457 24.3833 7.59138 23.1152 4.18163 21.9565C1.50698 27.2409 0 33.2167 0 39.5444C0 61.0835 17.4609 78.5444 39 78.5444Z" fill="url(#paint0_linear_63_1690)"/>
<path d="M72.8918 20.2347L74.6287 19.243L74.1676 18.4356L73.2532 18.2676L72.8918 20.2347ZM70.5 20.0062V18.0062V20.0062ZM60.5531 22.3255L61.2951 24.1828L60.5531 22.3255ZM50 24.5062L50.1198 22.5098L50 24.5062ZM41.9113 22.243L42.6988 20.4045V20.4045L41.9113 22.243ZM33.5 20.0062L33.5553 18.007L33.5 20.0062ZM24.5315 22.2638L25.3493 24.089L24.5315 22.2638ZM15.5 24.5062L15.5711 22.5075L15.5 24.5062ZM4.18163 21.9565L4.82516 20.0628L3.18124 19.5041L2.39717 21.0533L4.18163 21.9565ZM76 39.5444C76 59.979 59.4345 76.5444 39 76.5444V80.5444C61.6437 80.5444 80 62.1881 80 39.5444H76ZM71.155 21.2264C74.2378 26.6255 76 32.8761 76 39.5444H80C80 32.1623 78.0472 25.2302 74.6287 19.243L71.155 21.2264ZM70.5 22.0062C71.1523 22.0062 71.8306 22.0732 72.5305 22.2018L73.2532 18.2676C72.3463 18.101 71.4247 18.0062 70.5 18.0062V22.0062ZM61.2951 24.1828C64.1645 23.0366 66.7762 22.0062 70.5 22.0062V18.0062C65.9417 18.0062 62.7039 19.3127 59.8112 20.4683L61.2951 24.1828ZM49.8802 26.5026C54.7904 26.7972 58.1897 25.4234 61.2951 24.1828L59.8112 20.4683C56.7424 21.6942 54.068 22.7467 50.1198 22.5098L49.8802 26.5026ZM41.1237 24.0814C43.5245 25.1098 46.2339 26.2838 49.8802 26.5026L50.1198 22.5098C47.2417 22.3371 45.1077 21.4364 42.6988 20.4045L41.1237 24.0814ZM33.4447 22.0054C36.434 22.0881 38.611 23.0051 41.1237 24.0814L42.6988 20.4045C40.1915 19.3305 37.3853 18.1129 33.5553 18.007L33.4447 22.0054ZM25.3493 24.089C27.9795 22.9106 30.2433 21.9169 33.4447 22.0054L33.5553 18.007C29.3544 17.8908 26.3463 19.2592 23.7138 20.4386L25.3493 24.089ZM15.4289 26.5049C19.6678 26.6557 22.6948 25.2783 25.3493 24.089L23.7138 20.4386C21.0625 21.6265 18.7931 22.6221 15.5711 22.5075L15.4289 26.5049ZM3.53809 23.8501C6.96279 25.0139 11.6578 26.3708 15.4289 26.5049L15.5711 22.5075C12.4336 22.3959 8.21996 21.2165 4.82516 20.0628L3.53809 23.8501ZM2 39.5444C2 33.5376 3.42989 27.8705 5.96608 22.8596L2.39717 21.0533C-0.415931 26.6113 -2 32.8958 -2 39.5444H2ZM39 76.5444C18.5655 76.5444 2 59.979 2 39.5444H-2C-2 62.1881 16.3563 80.5444 39 80.5444V76.5444Z" fill="#FFCEB6" mask="url(#path-1-inside-1_63_1690)"/>
<circle cx="51.5" cy="49.5" r="3.5" fill="white" fill-opacity="0.33" stroke="#FFD7C4" stroke-width="2"/>
<circle cx="60" cy="44" r="1.5" fill="white" fill-opacity="0.33" stroke="#FFD7C4"/>
<circle cx="55" cy="32" r="2.25" fill="white" fill-opacity="0.33" stroke="#FFE6DA" stroke-width="1.5"/>
<circle cx="39" cy="39" r="38" stroke="#CFCFCF" stroke-width="2"/>
<defs>
<linearGradient id="paint0_linear_63_1690" x1="39" y1="20" x2="39" y2="78.5444" gradientUnits="userSpaceOnUse">
<stop stop-color="#FEF6F2"/>
<stop offset="1" stop-color="#FFDAC8"/>
</linearGradient>
</defs>
</svg>
