<svg width="78" height="78" viewBox="0 0 78 78" fill="none" xmlns="http://www.w3.org/2000/svg">
<circle cx="39" cy="39" r="38" fill="white" stroke="#CFCFCF" stroke-width="2"/>
<mask id="path-2-inside-1_63_1689" fill="white">
<path fill-rule="evenodd" clip-rule="evenodd" d="M39 77.5444C60.5391 77.5444 78 60.0835 78 38.5444C78 31.5192 76.1425 24.9279 72.8918 19.2347C72.0884 19.0871 71.2885 19.0062 70.5 19.0062C66.359 19.0062 63.4342 20.1746 60.5531 21.3255C57.4661 22.5588 54.4292 23.772 50 23.5062C46.7378 23.3105 44.3161 22.2731 41.9113 21.243C39.4013 20.1678 36.9096 19.1005 33.5 19.0062C29.7989 18.9039 27.1629 20.0849 24.5315 21.2638C21.8787 22.4524 19.2304 23.6389 15.5 23.5062C12.0457 23.3833 7.59138 22.1152 4.18163 20.9565C1.50698 26.2409 0 32.2167 0 38.5444C0 60.0835 17.4609 77.5444 39 77.5444Z"/>
</mask>
<path fill-rule="evenodd" clip-rule="evenodd" d="M39 77.5444C60.5391 77.5444 78 60.0835 78 38.5444C78 31.5192 76.1425 24.9279 72.8918 19.2347C72.0884 19.0871 71.2885 19.0062 70.5 19.0062C66.359 19.0062 63.4342 20.1746 60.5531 21.3255C57.4661 22.5588 54.4292 23.772 50 23.5062C46.7378 23.3105 44.3161 22.2731 41.9113 21.243C39.4013 20.1678 36.9096 19.1005 33.5 19.0062C29.7989 18.9039 27.1629 20.0849 24.5315 21.2638C21.8787 22.4524 19.2304 23.6389 15.5 23.5062C12.0457 23.3833 7.59138 22.1152 4.18163 20.9565C1.50698 26.2409 0 32.2167 0 38.5444C0 60.0835 17.4609 77.5444 39 77.5444Z" fill="url(#paint0_linear_63_1689)"/>
<path d="M72.8918 19.2347L74.6287 18.243L74.1676 17.4356L73.2532 17.2676L72.8918 19.2347ZM70.5 19.0062V17.0062V19.0062ZM60.5531 21.3255L61.2951 23.1828L60.5531 21.3255ZM50 23.5062L50.1198 21.5098L50 23.5062ZM41.9113 21.243L42.6988 19.4045V19.4045L41.9113 21.243ZM33.5 19.0062L33.5553 17.007L33.5 19.0062ZM24.5315 21.2638L25.3493 23.089L24.5315 21.2638ZM15.5 23.5062L15.5711 21.5075L15.5 23.5062ZM4.18163 20.9565L4.82516 19.0628L3.18124 18.5041L2.39717 20.0533L4.18163 20.9565ZM76 38.5444C76 58.979 59.4345 75.5444 39 75.5444V79.5444C61.6437 79.5444 80 61.1881 80 38.5444H76ZM71.155 20.2264C74.2378 25.6255 76 31.8761 76 38.5444H80C80 31.1623 78.0472 24.2302 74.6287 18.243L71.155 20.2264ZM70.5 21.0062C71.1523 21.0062 71.8306 21.0732 72.5305 21.2018L73.2532 17.2676C72.3463 17.101 71.4247 17.0062 70.5 17.0062V21.0062ZM61.2951 23.1828C64.1645 22.0366 66.7762 21.0062 70.5 21.0062V17.0062C65.9417 17.0062 62.7039 18.3127 59.8112 19.4683L61.2951 23.1828ZM49.8802 25.5026C54.7904 25.7972 58.1897 24.4234 61.2951 23.1828L59.8112 19.4683C56.7424 20.6942 54.068 21.7467 50.1198 21.5098L49.8802 25.5026ZM41.1237 23.0814C43.5245 24.1098 46.2339 25.2838 49.8802 25.5026L50.1198 21.5098C47.2417 21.3371 45.1077 20.4364 42.6988 19.4045L41.1237 23.0814ZM33.4447 21.0054C36.434 21.0881 38.611 22.0051 41.1237 23.0814L42.6988 19.4045C40.1915 18.3305 37.3853 17.1129 33.5553 17.007L33.4447 21.0054ZM25.3493 23.089C27.9795 21.9106 30.2433 20.9169 33.4447 21.0054L33.5553 17.007C29.3544 16.8908 26.3463 18.2592 23.7138 19.4386L25.3493 23.089ZM15.4289 25.5049C19.6678 25.6557 22.6948 24.2783 25.3493 23.089L23.7138 19.4386C21.0625 20.6265 18.7931 21.6221 15.5711 21.5075L15.4289 25.5049ZM3.53809 22.8501C6.96279 24.0139 11.6578 25.3708 15.4289 25.5049L15.5711 21.5075C12.4336 21.3959 8.21996 20.2165 4.82516 19.0628L3.53809 22.8501ZM2 38.5444C2 32.5376 3.42989 26.8705 5.96608 21.8596L2.39717 20.0533C-0.415931 25.6113 -2 31.8958 -2 38.5444H2ZM39 75.5444C18.5655 75.5444 2 58.979 2 38.5444H-2C-2 61.1881 16.3563 79.5444 39 79.5444V75.5444Z" fill="#FFCB3A" mask="url(#path-2-inside-1_63_1689)"/>
<circle cx="51.5" cy="48.5" r="3.5" stroke="#FFDC7F" stroke-width="2"/>
<circle cx="60" cy="43" r="1.5" stroke="#FFDC7F"/>
<circle cx="55" cy="31" r="2.25" stroke="#FFDC7F" stroke-width="1.5"/>
<defs>
<linearGradient id="paint0_linear_63_1689" x1="39" y1="19" x2="39" y2="77.5444" gradientUnits="userSpaceOnUse">
<stop stop-color="#FFF5E4"/>
<stop offset="1" stop-color="#FFEAAF"/>
</linearGradient>
</defs>
</svg>
