<svg width="238" height="183" viewBox="0 0 238 183" fill="none" xmlns="http://www.w3.org/2000/svg">
<path d="M120.504 179C120.549 181 120.549 180.999 120.55 180.999L120.553 180.999L120.561 180.999L120.593 180.998L120.712 180.995C120.816 180.992 120.97 180.988 121.169 180.981C121.568 180.967 122.153 180.944 122.905 180.907C124.408 180.834 126.579 180.705 129.263 180.486C134.63 180.048 142.06 179.244 150.317 177.783C166.744 174.877 186.793 169.31 200.252 158.563C218.774 143.773 227.621 116.365 231.904 93.1367C234.058 81.4497 235.083 70.6729 235.569 62.8201C235.812 58.8919 235.921 55.6908 235.969 53.4677C235.993 52.3561 236.002 51.4887 236.005 50.8969C236.006 50.6009 236.006 50.3739 236.006 50.2196C236.005 50.1425 236.005 50.0836 236.005 50.0433L236.005 49.997L236.004 49.9845L236.004 49.9809C236.004 49.9798 236.004 49.9791 234.004 50L236.004 49.9791L235.984 48H234.004H4.00446H2.03462L2.00469 49.9696L4.00446 50C2.00469 49.9696 2.00468 49.9704 2.00466 49.9714L2.00461 49.9751L2.00444 49.9877L2.00386 50.0341C2.0034 50.0746 2.0028 50.1337 2.00221 50.211C2.00103 50.3658 1.9999 50.5935 2.00001 50.8902C2.00022 51.4835 2.00541 52.3531 2.02513 53.4674C2.06458 55.6957 2.1622 58.9039 2.39471 62.84C2.85951 70.7085 3.86444 81.5047 6.0275 93.2058C10.3269 116.463 19.3027 143.883 38.2798 158.581C52.5708 169.65 73.2333 175.213 90.0866 178.037C98.5535 179.456 106.141 180.196 111.612 180.582C114.349 180.775 116.56 180.879 118.089 180.935C118.854 180.964 119.449 180.98 119.855 180.989C120.058 180.993 120.214 180.996 120.32 180.998L120.441 180.999L120.473 181L120.482 181L120.485 181C120.485 181 120.486 181 120.504 179ZM120.504 179L120.549 181L120.517 181L120.486 181L120.504 179Z" fill="#F1F1F1" stroke="#D8D8D8" stroke-width="4"/>
<path d="M119.004 97C150.948 97 179.959 91.8809 201.057 83.5331C211.601 79.3615 220.268 74.3445 226.333 68.6712C232.402 62.9949 236.004 56.5177 236.004 49.5C236.004 42.4823 232.402 36.0051 226.333 30.3288C220.268 24.6555 211.601 19.6385 201.057 15.4669C179.959 7.11915 150.948 2 119.004 2C87.061 2 58.05 7.11915 36.9513 15.4669C26.4078 19.6385 17.7403 24.6555 11.6754 30.3288C5.60719 36.0051 2.00439 42.4823 2.00439 49.5C2.00439 56.5177 5.60719 62.9949 11.6754 68.6712C17.7403 74.3445 26.4078 79.3615 36.9513 83.5331C58.05 91.8809 87.061 97 119.004 97Z" fill="#D9D9D9" stroke="#C9C9C9" stroke-width="4"/>
<path d="M218.504 61C218.504 65.5751 216.052 69.8738 211.12 73.8408C206.172 77.8199 198.909 81.3034 189.804 84.1694C171.614 89.8953 146.583 93 119.504 93C92.4261 93 67.2687 89.8954 48.9512 84.1683C39.7824 81.3016 32.4554 77.8168 27.4604 73.8354C22.4787 69.8645 20.0044 65.5666 20.0044 61C20.0044 56.3923 22.5208 51.6972 27.5549 47.1469C32.5804 42.6043 39.9302 38.3862 49.0866 34.784C67.3857 27.5849 92.5046 23 119.504 23C146.504 23 171.496 27.5849 189.668 34.7823C198.76 38.3836 206.047 42.6003 211.025 47.1409C216.011 51.6879 218.504 56.3843 218.504 61Z" fill="#E9603E" stroke="#BC4D31" stroke-width="4"/>
</svg>
